<mxfile host="app.diagrams.net" modified="2024-04-28T05:11:16.783Z" agent="Mozilla/5.0 (X11; Linux x86_64; rv:124.0) Gecko/20100101 Firefox/124.0" version="24.3.1" etag="OF2d_QUiVTU8opW5jpsA" type="github">
  <diagram name="Page-1" id="WuQEmZwfNvjioIhAISoW">
    <mxGraphModel>
      <root>
        <mxCell id="0" />
        <mxCell id="1" parent="0" />
      </root>
    </mxGraphModel>
  </diagram>
</mxfile>
